<svg width="24" height="24" viewBox="0 0 24 24" fill="none" xmlns="http://www.w3.org/2000/svg">
<g clip-path="url(#clip0_401_2169)">
<path d="M18.75 0H5.25C2.3505 0 0 2.3505 0 5.25V18.75C0 21.6495 2.3505 24 5.25 24H18.75C21.6495 24 24 21.6495 24 18.75V5.25C24 2.3505 21.6495 0 18.75 0Z" fill="#41479B"/>
<path d="M12.1827 4.6828L12.3829 5.28299L13.0155 5.28791C13.0974 5.28852 13.1314 5.39305 13.0655 5.44175L12.5566 5.8176L12.7474 6.42079C12.7721 6.49888 12.6832 6.56347 12.6166 6.51585L12.1019 6.14797L11.5872 6.51585C11.5206 6.56347 11.4317 6.49888 11.4564 6.42079L11.6472 5.8176L11.1383 5.44175C11.0724 5.3931 11.1064 5.28857 11.1883 5.28791L11.8209 5.28299L12.021 4.6828C12.0469 4.60508 12.1568 4.60508 12.1827 4.6828Z" fill="#FFE15A"/>
<path d="M12.1827 17.5685L12.3829 18.1687L13.0155 18.1736C13.0974 18.1743 13.1314 18.2787 13.0655 18.3274L12.5566 18.7032L12.7474 19.3064C12.7721 19.3845 12.6832 19.4491 12.6166 19.4015L12.1019 19.0336L11.5872 19.4015C11.5206 19.4491 11.4317 19.3845 11.4564 19.3064L11.6472 18.7032L11.1383 18.3274C11.0724 18.2787 11.1064 18.1742 11.1883 18.1736L11.8209 18.1687L12.021 17.5685C12.0469 17.4908 12.1568 17.4908 12.1827 17.5685Z" fill="#FFE15A"/>
<path d="M18.6253 11.1257L18.8254 11.7259L19.4581 11.7308C19.54 11.7314 19.5739 11.8359 19.508 11.8846L18.9991 12.2605L19.1899 12.8637C19.2146 12.9418 19.1257 13.0063 19.0591 12.9587L18.5444 12.5908L18.0297 12.9587C17.9631 13.0063 17.8742 12.9418 17.8989 12.8637L18.0897 12.2605L17.5808 11.8846C17.5149 11.836 17.5488 11.7314 17.6307 11.7308L18.2634 11.7259L18.4635 11.1257C18.4895 11.048 18.5994 11.048 18.6253 11.1257Z" fill="#FFE15A"/>
<path d="M5.7394 11.1257L5.93955 11.7259L6.57218 11.7308C6.65407 11.7314 6.68805 11.8359 6.62215 11.8846L6.11322 12.2605L6.30405 12.8637C6.32876 12.9418 6.23983 13.0063 6.17322 12.9587L5.65854 12.5908L5.14385 12.9587C5.07719 13.0063 4.98832 12.9418 5.01302 12.8637L5.20385 12.2605L4.69493 11.8846C4.62902 11.836 4.66301 11.7314 4.7449 11.7308L5.37752 11.7259L5.57768 11.1257C5.60355 11.048 5.71347 11.048 5.7394 11.1257Z" fill="#FFE15A"/>
<path d="M6.70615 7.7609L6.9063 8.36104L7.53897 8.36596C7.62087 8.36662 7.65485 8.4711 7.58894 8.51976L7.08002 8.8956L7.27085 9.49879C7.29555 9.57688 7.20663 9.64147 7.14002 9.59385L6.62533 9.22598L6.11065 9.59385C6.04399 9.64147 5.95507 9.57688 5.97982 9.49879L6.17065 8.8956L5.66172 8.51976C5.59582 8.4711 5.6298 8.36657 5.71169 8.36591L6.34432 8.36099L6.54447 7.76085C6.5703 7.68322 6.68022 7.68322 6.70615 7.7609Z" fill="#FFE15A"/>
<path d="M17.8664 14.2043L18.0665 14.8045L18.6991 14.8094C18.781 14.8101 18.815 14.9145 18.7491 14.9632L18.2402 15.339L18.431 15.9422C18.4557 16.0203 18.3668 16.0849 18.3002 16.0373L17.7855 15.6694L17.2708 16.0373C17.2041 16.0849 17.1152 16.0203 17.14 15.9422L17.3308 15.339L16.8219 14.9632C16.756 14.9145 16.79 14.81 16.8718 14.8094L17.5045 14.8045L17.7046 14.2043C17.7306 14.1266 17.8405 14.1266 17.8664 14.2043Z" fill="#FFE15A"/>
<path d="M15.5078 5.40298L15.708 6.00317L16.3406 6.00809C16.4225 6.00875 16.4565 6.11323 16.3906 6.16193L15.8816 6.53778L16.0725 7.14096C16.0972 7.21906 16.0083 7.28365 15.9416 7.23603L15.427 6.86815L14.9123 7.23603C14.8456 7.28365 14.7567 7.21906 14.7814 7.14096L14.9722 6.53778L14.4633 6.16193C14.3974 6.11328 14.4314 6.00875 14.5133 6.00809L15.1459 6.00317L15.346 5.40298C15.372 5.32531 15.4819 5.32531 15.5078 5.40298Z" fill="#FFE15A"/>
<path d="M9.06459 16.5622L9.26475 17.1624L9.89742 17.1673C9.97931 17.168 10.0133 17.2724 9.94739 17.3211L9.43847 17.6969L9.62929 18.3001C9.654 18.3782 9.56508 18.4428 9.49842 18.3952L8.98373 18.0273L8.46904 18.3952C8.40239 18.4428 8.31351 18.3782 8.33822 18.3001L8.52904 17.6969L8.02012 17.3211C7.95422 17.2724 7.9882 17.1679 8.07009 17.1673L8.70272 17.1624L8.90287 16.5622C8.92875 16.4845 9.03867 16.4845 9.06459 16.5622Z" fill="#FFE15A"/>
<path d="M17.7046 7.7609L17.5045 8.36104L16.8718 8.36596C16.79 8.36662 16.756 8.4711 16.8219 8.51976L17.3308 8.8956L17.14 9.49879C17.1153 9.57688 17.2042 9.64147 17.2708 9.59385L17.7855 9.22598L18.3002 9.59385C18.3668 9.64147 18.4558 9.57688 18.431 9.49879L18.2402 8.8956L18.7491 8.51976C18.815 8.4711 18.781 8.36657 18.6991 8.36591L18.0665 8.36099L17.8664 7.76085C17.8405 7.68322 17.7306 7.68322 17.7046 7.7609Z" fill="#FFE15A"/>
<path d="M6.54447 14.2043L6.34432 14.8045L5.71169 14.8094C5.6298 14.8101 5.59582 14.9145 5.66172 14.9632L6.17065 15.339L5.97982 15.9422C5.95512 16.0203 6.04404 16.0849 6.11065 16.0373L6.62533 15.6694L7.14002 16.0373C7.20668 16.0849 7.29555 16.0203 7.2709 15.9422L7.08007 15.339L7.58899 14.9632C7.6549 14.9145 7.62091 14.81 7.53902 14.8094L6.90635 14.8045L6.70619 14.2043C6.68032 14.1266 6.5704 14.1266 6.54447 14.2043Z" fill="#FFE15A"/>
<path d="M8.90287 5.40298L8.70272 6.00317L8.07009 6.00809C7.9882 6.00875 7.95422 6.11323 8.02012 6.16193L8.52905 6.53778L8.33822 7.14096C8.31351 7.21906 8.40244 7.28365 8.46905 7.23603L8.98373 6.86815L9.49842 7.23603C9.56508 7.28365 9.65395 7.21906 9.62925 7.14096L9.43842 6.53778L9.94734 6.16193C10.0132 6.11328 9.97926 6.00875 9.89737 6.00809L9.2647 6.00317L9.06455 5.40298C9.03872 5.32531 8.92879 5.32531 8.90287 5.40298Z" fill="#FFE15A"/>
<path d="M15.3461 16.5622L15.1459 17.1624L14.5133 17.1673C14.4314 17.168 14.3974 17.2724 14.4633 17.3211L14.9723 17.6969L14.7814 18.3001C14.7567 18.3782 14.8457 18.4428 14.9123 18.3952L15.427 18.0273L15.9416 18.3952C16.0083 18.4428 16.0972 18.3782 16.0725 18.3001L15.8816 17.6969L16.3906 17.3211C16.4565 17.2724 16.4225 17.1679 16.3406 17.1673L15.708 17.1624L15.5078 16.5622C15.4819 16.4845 15.372 16.4845 15.3461 16.5622Z" fill="#FFE15A"/>
</g>
<defs>
<clipPath id="clip0_401_2169">
<rect width="24" height="24" rx="12" fill="white"/>
</clipPath>
</defs>
</svg>
