<svg width="179" height="48" viewBox="0 0 179 48" fill="none" xmlns="http://www.w3.org/2000/svg">
<path d="M18.5774 24.953C18.5774 23.8813 18.2422 23.1496 17.5717 22.7581C16.9222 22.3459 15.9583 22.1398 14.6802 22.1398C13.444 22.1398 12.4488 22.3562 11.6945 22.789C10.9612 23.2218 10.5945 23.9534 10.5945 24.9839V34.5672H5.00018V12H10.5316V21.3669C11.0764 20.3365 11.9459 19.5842 13.1402 19.1102C14.3345 18.6362 15.686 18.3992 17.1945 18.3992C19.4574 18.3992 21.186 18.8629 22.3803 19.7903C23.5746 20.7177 24.1717 22.2634 24.1717 24.4274V34.5672H18.5774V24.953Z" fill="white"/>
<path d="M27.678 18.832H33.2723V28.4462C33.2723 29.5385 33.5971 30.2805 34.2466 30.672C34.8961 31.043 35.8704 31.2285 37.1695 31.2285C37.7561 31.2285 38.3009 31.1873 38.8038 31.1048C39.3066 31.0018 39.7361 30.8472 40.0923 30.6411C40.4485 30.4144 40.7314 30.1156 40.9409 29.7446C41.1504 29.3737 41.2552 28.9202 41.2552 28.3844V18.832H46.8495V34.5672H41.3809V31.8777C40.8362 32.97 39.9666 33.7634 38.7723 34.2581C37.578 34.7527 36.2056 35 34.6552 35C33.5656 35 32.5809 34.897 31.7009 34.6909C30.8418 34.4848 30.1085 34.1447 29.5009 33.6707C28.9142 33.1761 28.4637 32.5475 28.1494 31.7849C27.8351 31.0018 27.678 30.0332 27.678 28.879V18.832Z" fill="white"/>
<path d="M49.8529 26.746C49.8529 25.2621 50.0415 23.9946 50.4186 22.9435C50.8167 21.8719 51.3825 21.0063 52.1158 20.3468C52.8491 19.6667 53.7396 19.172 54.7872 18.8629C55.8558 18.5538 57.0606 18.3992 58.4015 18.3992C61.4606 18.3992 63.6292 19.2854 64.9073 21.0578V12H70.5016V34.5672H65.033V32.125C63.7549 34.0417 61.5444 35 58.4015 35C57.0815 35 55.8872 34.8454 54.8187 34.5363C53.771 34.2271 52.8701 33.7428 52.1158 33.0833C51.3825 32.4238 50.8167 31.5686 50.4186 30.5175C50.0415 29.4664 49.8529 28.2092 49.8529 26.746ZM64.9073 25.4476C64.9073 24.1698 64.5197 23.2939 63.7444 22.8199C62.9692 22.3459 61.7854 22.1089 60.193 22.1089C58.6425 22.1089 57.4692 22.3562 56.673 22.8508C55.8977 23.3248 55.5101 24.2007 55.5101 25.4785V27.8898C55.5101 29.1676 55.8977 30.0538 56.673 30.5484C57.4692 31.043 58.6425 31.2903 60.193 31.2903C61.7644 31.2903 62.9378 31.043 63.713 30.5484C64.5092 30.0538 64.9073 29.1573 64.9073 27.8589V25.4476Z" fill="white"/>
<path d="M74.1766 18.832H79.7709V28.4462C79.7709 29.5385 80.0956 30.2805 80.7452 30.672C81.3947 31.043 82.369 31.2285 83.668 31.2285C84.2547 31.2285 84.7995 31.1873 85.3023 31.1048C85.8052 31.0018 86.2347 30.8472 86.5909 30.6411C86.9471 30.4144 87.23 30.1156 87.4395 29.7446C87.649 29.3737 87.7538 28.9202 87.7538 28.3844V18.832H93.3481V34.5672H87.8795V31.8777C87.3347 32.97 86.4652 33.7634 85.2709 34.2581C84.0766 34.7527 82.7042 35 81.1537 35C80.0642 35 79.0794 34.897 78.1994 34.6909C77.3404 34.4848 76.607 34.1447 75.9994 33.6707C75.4128 33.1761 74.9623 32.5475 74.648 31.7849C74.3337 31.0018 74.1766 30.0332 74.1766 28.879V18.832Z" fill="white"/>
<path d="M96.3515 26.746C96.3515 25.2621 96.5401 23.9946 96.9172 22.9435C97.3153 21.8719 97.881 21.0063 98.6144 20.3468C99.3477 19.6667 100.238 19.172 101.286 18.8629C102.354 18.5538 103.559 18.3992 104.9 18.3992C107.959 18.3992 110.128 19.2854 111.406 21.0578V12H117V34.5672H111.532V32.125C110.253 34.0417 108.043 35 104.9 35C103.58 35 102.386 34.8454 101.317 34.5363C100.27 34.2271 99.3687 33.7428 98.6144 33.0833C97.881 32.4238 97.3153 31.5686 96.9172 30.5175C96.5401 29.4664 96.3515 28.2092 96.3515 26.746ZM111.406 25.4476C111.406 24.1698 111.018 23.2939 110.243 22.8199C109.468 22.3459 108.284 22.1089 106.692 22.1089C105.141 22.1089 103.968 22.3562 103.172 22.8508C102.396 23.3248 102.009 24.2007 102.009 25.4785V27.8898C102.009 29.1676 102.396 30.0538 103.172 30.5484C103.968 31.043 105.141 31.2903 106.692 31.2903C108.263 31.2903 109.436 31.043 110.212 30.5484C111.008 30.0538 111.406 29.1573 111.406 27.8589V25.4476Z" fill="white"/>
<rect width="52" height="48" transform="translate(127)" fill="#DD3333"/>
<path d="M131 32.7031C131 30.9929 131.333 29.6108 131.999 28.5568C132.685 27.5028 133.533 26.6577 134.542 26.0213C135.552 25.3849 136.641 24.8977 137.812 24.5597C139.003 24.2017 140.103 23.8636 141.112 23.5455C142.121 23.2273 142.959 22.8594 143.625 22.4418C144.311 22.0241 144.654 21.4375 144.654 20.6818V20.2045C144.654 19.4489 144.341 18.9318 143.716 18.6534C143.09 18.3551 142.151 18.206 140.9 18.206C139.528 18.206 138.529 18.3949 137.903 18.7727C137.297 19.1506 136.914 19.8565 136.752 20.8906H131.061C131.141 19.5781 131.424 18.4844 131.908 17.6094C132.413 16.7145 133.089 16.0085 133.937 15.4915C134.785 14.9545 135.794 14.5767 136.964 14.358C138.155 14.1193 139.477 14 140.93 14C142.464 14 143.817 14.1193 144.987 14.358C146.158 14.5767 147.137 14.9446 147.924 15.4616C148.731 15.9588 149.337 16.6151 149.74 17.4304C150.164 18.2259 150.376 19.2102 150.376 20.3835C150.376 21.3977 150.194 22.2628 149.831 22.9787C149.468 23.6747 148.983 24.2713 148.378 24.7685C147.793 25.2656 147.106 25.6832 146.319 26.0213C145.552 26.3395 144.765 26.6278 143.958 26.8864C143.15 27.125 142.343 27.3537 141.536 27.5724C140.749 27.7912 140.032 28.0298 139.386 28.2884C138.74 28.5469 138.196 28.8651 137.751 29.2429C137.328 29.6009 137.065 30.0483 136.964 30.5852H150.255V35H131V32.7031Z" fill="white"/>
<path d="M163.435 14.4176H171.307V26.3494H175V30.4659H171.307V35H165.676V30.4659H152.597V26.8864L163.435 14.4176ZM165.676 26.3494V18.0568L158.47 26.3494H165.676Z" fill="white"/>
</svg>
