<svg width="25" height="20" viewBox="0 0 25 20" fill="none" xmlns="http://www.w3.org/2000/svg">
<path d="M1.68425 8.53659C8.2609 5.81999 12.6464 4.02904 14.8406 3.16374C21.1058 0.693141 22.4076 0.263972 23.2561 0.249649C23.4427 0.246683 23.86 0.290533 24.1303 0.498473C24.3585 0.674053 24.4213 0.911237 24.4514 1.07771C24.4814 1.24418 24.5188 1.6234 24.4891 1.91971C24.1496 5.30177 22.6805 13.5092 21.9332 17.2971C21.6169 18.9 20.9943 19.4374 20.3914 19.49C19.0813 19.6043 18.0865 18.6691 16.8176 17.8805C14.8321 16.6465 13.7103 15.8784 11.783 14.6742C9.55565 13.2826 10.9996 12.5178 12.2689 11.2678C12.6011 10.9407 18.3734 5.96286 18.4851 5.51129C18.4991 5.45482 18.5121 5.2443 18.3802 5.13314C18.2483 5.02198 18.0536 5.06 17.9131 5.09023C17.7139 5.13308 14.542 7.12079 8.39721 11.0534C7.49686 11.6395 6.68135 11.9251 5.95068 11.9101C5.14518 11.8936 3.59571 11.4783 2.44385 11.1234C1.03103 10.6879 -0.0918418 10.4577 0.00593535 9.71828C0.0568637 9.33313 0.616301 8.93923 1.68425 8.53659Z" fill="white"/>
</svg>
