<svg width="26" height="22" viewBox="0 0 26 22" fill="none" xmlns="http://www.w3.org/2000/svg">
<path d="M25.2499 2.92259C24.3312 3.4072 23.4124 3.56874 22.3406 3.73028C23.4124 3.08413 24.1781 2.1149 24.4843 0.822588C23.5656 1.46874 22.4937 1.79182 21.2687 2.1149C20.3499 1.14567 18.9718 0.499512 17.5937 0.499512C14.3781 0.499512 11.9281 3.73028 12.6937 6.96105C8.55931 6.79951 4.88431 4.69951 2.28119 1.46874C0.903064 3.89182 1.66869 6.96105 3.81244 8.57644C3.04681 8.57644 2.28119 8.25336 1.51556 7.93028C1.51556 10.3534 3.19994 12.6149 5.49681 13.261C4.73119 13.4226 3.96556 13.5841 3.19994 13.4226C3.81244 15.5226 5.64994 17.138 7.94681 17.138C6.10931 18.5918 3.35306 19.3995 0.749939 19.0764C3.04681 20.5303 5.64994 21.4995 8.40619 21.4995C17.7468 21.4995 22.9531 13.261 22.6468 5.66874C23.7187 5.02259 24.6374 4.05336 25.2499 2.92259Z" fill="white"/>
</svg>
