<svg width="24" height="24" viewBox="0 0 24 24" fill="none" xmlns="http://www.w3.org/2000/svg">
<g clip-path="url(#clip0_401_2197)">
<path d="M24 5.53809H0V7.38402H24V5.53809Z" fill="#F5F5F5"/>
<path d="M22.7471 1.84619H1.25362C0.798555 2.38 0.448352 3.00593 0.235352 3.69236H23.7654C23.5524 3.00593 23.2022 2.38 22.7471 1.84619Z" fill="#F5F5F5"/>
<path d="M24 9.23047H0V11.0764H24V9.23047Z" fill="#F5F5F5"/>
<path d="M24 12.9229H0V14.7688H24V12.9229Z" fill="#F5F5F5"/>
<path d="M24 16.6152H0V18.4612H24V16.6152Z" fill="#F5F5F5"/>
<path d="M23.7654 20.3076H0.235352C0.448305 20.9941 0.798555 21.6199 1.25362 22.1537H22.7471C23.2022 21.6199 23.5524 20.9941 23.7654 20.3076Z" fill="#F5F5F5"/>
<path d="M18.7497 0H5.24968C3.64899 0 2.21588 0.716578 1.25293 1.84617H22.7464C21.7835 0.716578 20.3504 0 18.7497 0Z" fill="#FF4B55"/>
<path d="M24 7.38477H0V9.2307H24V7.38477Z" fill="#FF4B55"/>
<path d="M24 5.25004C24 4.70765 23.9177 4.18452 23.765 3.69238H0.234984C0.0822656 4.18452 0 4.70765 0 5.25004V5.53851H24V5.25004Z" fill="#FF4B55"/>
<path d="M24 11.0771H0V12.9231H24V11.0771Z" fill="#FF4B55"/>
<path d="M24 18.7499V18.4614H0V18.7499C0 19.2923 0.0822656 19.8154 0.234984 20.3076H23.765C23.9177 19.8154 24 19.2923 24 18.7499Z" fill="#FF4B55"/>
<path d="M22.7464 22.1538H1.25293C2.21588 23.2834 3.64899 24 5.24968 24H18.7497C20.3504 24 21.7835 23.2834 22.7464 22.1538Z" fill="#FF4B55"/>
<path d="M24 14.7695H0V16.6155H24V14.7695Z" fill="#FF4B55"/>
<path d="M12.9231 0H5.25C2.3505 0 0 2.3505 0 5.25V12.9231H12.9231V0Z" fill="#41479B"/>
<path d="M1.39454 2.01863C1.38226 2.05749 1.42646 2.08964 1.45965 2.06593L1.71573 1.88293L1.97181 2.06593C2.00495 2.08964 2.0492 2.05749 2.03692 2.01863L1.94199 1.71854L2.19521 1.53155C2.22798 1.50732 2.2111 1.45533 2.17032 1.455L1.8556 1.45257L1.80188 1.2915C1.66698 1.40911 1.53831 1.53361 1.4161 1.66425L1.48956 1.71854L1.39454 2.01863Z" fill="#F5F5F5"/>
<path d="M1.7557 3.64473L1.85526 3.94332L2.16998 3.94576C2.21072 3.94609 2.22764 3.99807 2.19487 4.0223L1.94165 4.20929L2.03658 4.50938C2.04886 4.54824 2.00465 4.58035 1.97147 4.55668L1.71539 4.37363L1.45931 4.55668C1.42617 4.5804 1.38192 4.54824 1.3942 4.50938L1.48912 4.20929L1.2359 4.0223C1.20314 3.99812 1.22001 3.94609 1.26075 3.94576L1.57547 3.94332L1.67503 3.64473C1.68811 3.60605 1.74281 3.60605 1.7557 3.64473Z" fill="#F5F5F5"/>
<path d="M1.7557 6.40742L1.85526 6.70602L2.16998 6.70845C2.21072 6.70878 2.22764 6.76077 2.19487 6.785L1.94165 6.97198L2.03658 7.27208C2.04886 7.31094 2.00465 7.34305 1.97147 7.31938L1.71539 7.13637L1.45931 7.31938C1.42617 7.34305 1.38192 7.31094 1.3942 7.27208L1.48912 6.97198L1.2359 6.785C1.20314 6.76081 1.22001 6.70878 1.26075 6.70845L1.57547 6.70602L1.67503 6.40742C1.68811 6.36875 1.74281 6.36875 1.7557 6.40742Z" fill="#F5F5F5"/>
<path d="M1.7557 8.94551L1.85526 9.2441L2.16998 9.24654C2.21072 9.24687 2.22764 9.29885 2.19487 9.32309L1.94165 9.51007L2.03658 9.81016C2.04886 9.84902 2.00465 9.88113 1.97147 9.85746L1.71539 9.67441L1.45931 9.85746C1.42617 9.88113 1.38192 9.84902 1.3942 9.81016L1.48912 9.51007L1.2359 9.32309C1.20314 9.2989 1.22001 9.24687 1.26075 9.24654L1.57547 9.2441L1.67503 8.94551C1.68811 8.90684 1.74281 8.90684 1.7557 8.94551Z" fill="#F5F5F5"/>
<path d="M1.7557 11.2551L1.85526 11.5537L2.16998 11.5561C2.21072 11.5564 2.22764 11.6084 2.19487 11.6327L1.94165 11.8196L2.03658 12.1197C2.04886 12.1586 2.00465 12.1907 1.97147 12.167L1.71539 11.984L1.45931 12.167C1.42617 12.1907 1.38192 12.1586 1.3942 12.1197L1.48912 11.8196L1.2359 11.6327C1.20314 11.6085 1.22001 11.5564 1.26075 11.5561L1.57547 11.5537L1.67503 11.2551C1.68811 11.2164 1.74281 11.2164 1.7557 11.2551Z" fill="#F5F5F5"/>
<path d="M2.96845 2.33369L3.06801 2.63229L3.38273 2.63472C3.42347 2.63505 3.44039 2.68704 3.40762 2.71122L3.1544 2.89821L3.24933 3.1983C3.26161 3.23716 3.2174 3.26932 3.18422 3.2456L2.92823 3.06255L2.67215 3.2456C2.63901 3.26932 2.59476 3.23716 2.60705 3.1983L2.70197 2.89821L2.4488 2.71122C2.41603 2.68704 2.4329 2.635 2.47364 2.63472L2.78836 2.63229L2.88792 2.33369C2.90086 2.29502 2.95556 2.29502 2.96845 2.33369Z" fill="#F5F5F5"/>
<path d="M2.96757 5.0959L3.06713 5.39449L3.38185 5.39693C3.42258 5.39726 3.43951 5.44924 3.40674 5.47348L3.15352 5.66046L3.24844 5.96055C3.26072 5.99941 3.21652 6.03157 3.18333 6.00785L2.92726 5.8248L2.67118 6.00785C2.63804 6.03157 2.59379 5.99941 2.60607 5.96055L2.70099 5.66046L2.44782 5.47348C2.41505 5.44929 2.43193 5.39726 2.47266 5.39693L2.78738 5.39449L2.88694 5.0959C2.89997 5.05723 2.95468 5.05723 2.96757 5.0959Z" fill="#F5F5F5"/>
<path d="M2.96757 7.72038L3.06713 8.01897L3.38185 8.02141C3.42258 8.02173 3.43951 8.07372 3.40674 8.09795L3.15352 8.28494L3.24844 8.58503C3.26072 8.62389 3.21652 8.656 3.18333 8.63233L2.92726 8.44928L2.67118 8.63233C2.63804 8.65605 2.59379 8.62389 2.60607 8.58503L2.70099 8.28494L2.44782 8.09795C2.41505 8.07377 2.43193 8.02173 2.47266 8.02141L2.78738 8.01897L2.88694 7.72038C2.89997 7.68175 2.95468 7.68175 2.96757 7.72038Z" fill="#F5F5F5"/>
<path d="M2.96757 10.0773L3.06713 10.3759L3.38185 10.3784C3.42258 10.3787 3.43951 10.4307 3.40674 10.4549L3.15352 10.6419L3.24844 10.942C3.26072 10.9809 3.21652 11.013 3.18333 10.9893L2.92726 10.8063L2.67118 10.9893C2.63804 11.013 2.59379 10.9809 2.60607 10.942L2.70099 10.6419L2.44782 10.4549C2.41505 10.4307 2.43193 10.3787 2.47266 10.3784L2.78738 10.3759L2.88694 10.0773C2.89997 10.0387 2.95468 10.0387 2.96757 10.0773Z" fill="#F5F5F5"/>
<path d="M4.18036 1.15397L4.27992 1.45256L4.59464 1.455C4.63538 1.45533 4.6523 1.50731 4.61953 1.5315L4.36631 1.71848L4.46123 2.01858C4.47352 2.05744 4.42931 2.08955 4.39613 2.06587L4.14005 1.88283L3.88397 2.06587C3.85083 2.08959 3.80658 2.05744 3.81886 2.01858L3.91378 1.71848L3.66061 1.5315C3.62784 1.50731 3.64472 1.45528 3.68545 1.455L4.00017 1.45256L4.09973 1.15397C4.11277 1.11534 4.16747 1.11534 4.18036 1.15397Z" fill="#F5F5F5"/>
<path d="M4.18036 3.64473L4.27992 3.94332L4.59464 3.94576C4.63538 3.94609 4.6523 3.99807 4.61953 4.0223L4.36631 4.20929L4.46123 4.50938C4.47352 4.54824 4.42931 4.58035 4.39613 4.55668L4.14005 4.37363L3.88397 4.55668C3.85083 4.5804 3.80658 4.54824 3.81886 4.50938L3.91378 4.20929L3.66061 4.0223C3.62784 3.99812 3.64472 3.94609 3.68545 3.94576L4.00017 3.94332L4.09973 3.64473C4.11277 3.60605 4.16747 3.60605 4.18036 3.64473Z" fill="#F5F5F5"/>
<path d="M4.18036 6.40742L4.27992 6.70602L4.59464 6.70845C4.63538 6.70878 4.6523 6.76077 4.61953 6.785L4.36631 6.97198L4.46123 7.27208C4.47352 7.31094 4.42931 7.34305 4.39613 7.31938L4.14005 7.13637L3.88397 7.31938C3.85083 7.34305 3.80658 7.31094 3.81886 7.27208L3.91378 6.97198L3.66061 6.785C3.62784 6.76081 3.64472 6.70878 3.68545 6.70845L4.00017 6.70602L4.09973 6.40742C4.11277 6.36875 4.16747 6.36875 4.18036 6.40742Z" fill="#F5F5F5"/>
<path d="M4.18036 8.94551L4.27992 9.2441L4.59464 9.24654C4.63538 9.24687 4.6523 9.29885 4.61953 9.32309L4.36631 9.51007L4.46123 9.81016C4.47352 9.84902 4.42931 9.88113 4.39613 9.85746L4.14005 9.67441L3.88397 9.85746C3.85083 9.88113 3.80658 9.84902 3.81886 9.81016L3.91378 9.51007L3.66061 9.32309C3.62784 9.2989 3.64472 9.24687 3.68545 9.24654L4.00017 9.2441L4.09973 8.94551C4.11277 8.90684 4.16747 8.90684 4.18036 8.94551Z" fill="#F5F5F5"/>
<path d="M4.18036 11.2551L4.27992 11.5537L4.59464 11.5561C4.63538 11.5564 4.6523 11.6084 4.61953 11.6327L4.36631 11.8196L4.46123 12.1197C4.47352 12.1586 4.42931 12.1907 4.39613 12.167L4.14005 11.984L3.88397 12.167C3.85083 12.1907 3.80658 12.1586 3.81886 12.1197L3.91378 11.8196L3.66061 11.6327C3.62784 11.6085 3.64472 11.5564 3.68545 11.5561L4.00017 11.5537L4.09973 11.2551C4.11277 11.2164 4.16747 11.2164 4.18036 11.2551Z" fill="#F5F5F5"/>
<path d="M5.39242 2.33369L5.49198 2.63229L5.8067 2.63472C5.84743 2.63505 5.86436 2.68704 5.83154 2.71122L5.57837 2.89821L5.67329 3.1983C5.68557 3.23716 5.64137 3.26932 5.60818 3.2456L5.35211 3.06255L5.09603 3.2456C5.06289 3.26932 5.01864 3.23716 5.03092 3.1983L5.12584 2.89821L4.87262 2.71122C4.83986 2.68704 4.85673 2.635 4.89751 2.63472L5.21223 2.63229L5.31179 2.33369C5.32487 2.29502 5.37953 2.29502 5.39242 2.33369Z" fill="#F5F5F5"/>
<path d="M5.39242 5.0959L5.49198 5.39449L5.8067 5.39693C5.84743 5.39726 5.86436 5.44924 5.83154 5.47348L5.57837 5.66046L5.67329 5.96055C5.68557 5.99941 5.64137 6.03157 5.60818 6.00785L5.35211 5.8248L5.09603 6.00785C5.06289 6.03157 5.01864 5.99941 5.03092 5.96055L5.12584 5.66046L4.87262 5.47348C4.83986 5.44929 4.85673 5.39726 4.89751 5.39693L5.21223 5.39449L5.31179 5.0959C5.32487 5.05723 5.37953 5.05723 5.39242 5.0959Z" fill="#F5F5F5"/>
<path d="M5.39242 7.72038L5.49198 8.01897L5.8067 8.02141C5.84743 8.02173 5.86436 8.07372 5.83154 8.09795L5.57837 8.28494L5.67329 8.58503C5.68557 8.62389 5.64137 8.656 5.60818 8.63233L5.35211 8.44928L5.09603 8.63233C5.06289 8.65605 5.01864 8.62389 5.03092 8.58503L5.12584 8.28494L4.87262 8.09795C4.83986 8.07377 4.85673 8.02173 4.89751 8.02141L5.21223 8.01897L5.31179 7.72038C5.32487 7.68175 5.37953 7.68175 5.39242 7.72038Z" fill="#F5F5F5"/>
<path d="M5.39242 10.0773L5.49198 10.3759L5.8067 10.3784C5.84743 10.3787 5.86436 10.4307 5.83154 10.4549L5.57837 10.6419L5.67329 10.942C5.68557 10.9809 5.64137 11.013 5.60818 10.9893L5.35211 10.8063L5.09603 10.9893C5.06289 11.013 5.01864 10.9809 5.03092 10.942L5.12584 10.6419L4.87262 10.4549C4.83986 10.4307 4.85673 10.3787 4.89751 10.3784L5.21223 10.3759L5.31179 10.0773C5.32487 10.0387 5.37953 10.0387 5.39242 10.0773Z" fill="#F5F5F5"/>
<path d="M6.60526 1.15397L6.70482 1.45256L7.01954 1.455C7.06028 1.45533 7.0772 1.50731 7.04439 1.5315L6.79121 1.71848L6.88614 2.01858C6.89842 2.05744 6.85421 2.08955 6.82103 2.06587L6.56495 1.88283L6.30887 2.06587C6.27573 2.08959 6.23148 2.05744 6.24376 2.01858L6.33868 1.71848L6.08551 1.5315C6.05275 1.50731 6.06962 1.45528 6.1104 1.455L6.42512 1.45256L6.52468 1.15397C6.53771 1.11534 6.59237 1.11534 6.60526 1.15397Z" fill="#F5F5F5"/>
<path d="M6.60502 3.64473L6.70458 3.94333L7.0193 3.94576C7.06003 3.94609 7.07695 3.99808 7.04414 4.02231L6.79097 4.2093L6.88594 4.50934C6.89822 4.5482 6.85402 4.58031 6.82083 4.55664L6.56475 4.37359L6.30867 4.55664C6.27553 4.58036 6.23128 4.5482 6.24356 4.50934L6.33848 4.20925L6.08531 4.02226C6.05255 3.99808 6.06942 3.94605 6.1102 3.94572L6.42492 3.94328L6.52448 3.64469C6.53747 3.60606 6.59213 3.60606 6.60502 3.64473Z" fill="#F5F5F5"/>
<path d="M6.60526 6.40742L6.70482 6.70602L7.01954 6.70845C7.06028 6.70878 7.0772 6.76077 7.04439 6.785L6.79121 6.97198L6.88614 7.27208C6.89842 7.31094 6.85421 7.34305 6.82103 7.31938L6.56495 7.13637L6.30887 7.31938C6.27573 7.34305 6.23148 7.31094 6.24376 7.27208L6.33868 6.97198L6.08551 6.785C6.05275 6.76081 6.06962 6.70878 6.1104 6.70845L6.42512 6.70602L6.52468 6.40742C6.53771 6.36875 6.59237 6.36875 6.60526 6.40742Z" fill="#F5F5F5"/>
<path d="M6.60526 8.94551L6.70482 9.2441L7.01954 9.24654C7.06028 9.24687 7.0772 9.29885 7.04439 9.32309L6.79121 9.51007L6.88614 9.81016C6.89842 9.84902 6.85421 9.88113 6.82103 9.85746L6.56495 9.67441L6.30887 9.85746C6.27573 9.88113 6.23148 9.84902 6.24376 9.81016L6.33868 9.51007L6.08551 9.32309C6.05275 9.2989 6.06962 9.24687 6.1104 9.24654L6.42512 9.2441L6.52468 8.94551C6.53771 8.90684 6.59237 8.90684 6.60526 8.94551Z" fill="#F5F5F5"/>
<path d="M6.60526 11.2551L6.70482 11.5537L7.01954 11.5561C7.06028 11.5564 7.0772 11.6084 7.04439 11.6327L6.79121 11.8196L6.88614 12.1197C6.89842 12.1586 6.85421 12.1907 6.82103 12.167L6.56495 11.984L6.30887 12.167C6.27573 12.1907 6.23148 12.1586 6.24376 12.1197L6.33868 11.8196L6.08551 11.6327C6.05275 11.6085 6.06962 11.5564 6.1104 11.5561L6.42512 11.5537L6.52468 11.2551C6.53771 11.2164 6.59237 11.2164 6.60526 11.2551Z" fill="#F5F5F5"/>
<path d="M7.81734 2.33369L7.9169 2.63229L8.23162 2.63472C8.27236 2.63505 8.28928 2.68704 8.25646 2.71122L8.00325 2.89821L8.09817 3.1983C8.11045 3.23716 8.0662 3.26932 8.03306 3.2456L7.77698 3.06255L7.5209 3.2456C7.48776 3.26932 7.44351 3.23716 7.45579 3.1983L7.55071 2.89821L7.29754 2.71122C7.26478 2.68704 7.28165 2.635 7.32239 2.63472L7.63711 2.63229L7.73667 2.33369C7.74979 2.29502 7.80445 2.29502 7.81734 2.33369Z" fill="#F5F5F5"/>
<path d="M7.81734 5.0959L7.9169 5.39449L8.23162 5.39693C8.27236 5.39726 8.28928 5.44924 8.25646 5.47348L8.00325 5.66046L8.09817 5.96055C8.11045 5.99941 8.0662 6.03157 8.03306 6.00785L7.77698 5.8248L7.5209 6.00785C7.48776 6.03157 7.44351 5.99941 7.45579 5.96055L7.55071 5.66046L7.29754 5.47348C7.26478 5.44929 7.28165 5.39726 7.32239 5.39693L7.63711 5.39449L7.73667 5.0959C7.74979 5.05723 7.80445 5.05723 7.81734 5.0959Z" fill="#F5F5F5"/>
<path d="M7.81734 7.72038L7.9169 8.01897L8.23162 8.02141C8.27236 8.02173 8.28928 8.07372 8.25646 8.09795L8.00325 8.28494L8.09817 8.58503C8.11045 8.62389 8.0662 8.656 8.03306 8.63233L7.77698 8.44928L7.5209 8.63233C7.48776 8.65605 7.44351 8.62389 7.45579 8.58503L7.55071 8.28494L7.29754 8.09795C7.26478 8.07377 7.28165 8.02173 7.32239 8.02141L7.63711 8.01897L7.73667 7.72038C7.74979 7.68175 7.80445 7.68175 7.81734 7.72038Z" fill="#F5F5F5"/>
<path d="M7.81734 10.0773L7.9169 10.3759L8.23162 10.3784C8.27236 10.3787 8.28928 10.4307 8.25646 10.4549L8.00325 10.6419L8.09817 10.942C8.11045 10.9809 8.0662 11.013 8.03306 10.9893L7.77698 10.8063L7.5209 10.9893C7.48776 11.013 7.44351 10.9809 7.45579 10.942L7.55071 10.6419L7.29754 10.4549C7.26478 10.4307 7.28165 10.3787 7.32239 10.3784L7.63711 10.3759L7.73667 10.0773C7.74979 10.0387 7.80445 10.0387 7.81734 10.0773Z" fill="#F5F5F5"/>
<path d="M9.02918 1.15397L9.12875 1.45256L9.44346 1.455C9.4842 1.45533 9.50112 1.50731 9.46831 1.5315L9.21509 1.71848L9.31001 2.01858C9.32229 2.05744 9.27804 2.08955 9.2449 2.06587L8.98882 1.88283L8.73275 2.06587C8.69961 2.08959 8.65536 2.05744 8.66764 2.01858L8.76256 1.71848L8.50934 1.5315C8.47657 1.50731 8.49345 1.45528 8.53423 1.455L8.84895 1.45256L8.94851 1.15397C8.96164 1.11534 9.01629 1.11534 9.02918 1.15397Z" fill="#F5F5F5"/>
<path d="M9.02918 3.64473L9.12875 3.94332L9.44346 3.94576C9.4842 3.94609 9.50112 3.99807 9.46831 4.0223L9.21509 4.20929L9.31001 4.50938C9.32229 4.54824 9.27804 4.58035 9.2449 4.55668L8.98882 4.37363L8.73275 4.55668C8.69961 4.5804 8.65536 4.54824 8.66764 4.50938L8.76256 4.20929L8.50934 4.0223C8.47657 3.99812 8.49345 3.94609 8.53423 3.94576L8.84895 3.94332L8.94851 3.64473C8.96164 3.60605 9.01629 3.60605 9.02918 3.64473Z" fill="#F5F5F5"/>
<path d="M9.02918 6.40742L9.12875 6.70602L9.44346 6.70845C9.4842 6.70878 9.50112 6.76077 9.46831 6.785L9.21509 6.97198L9.31001 7.27208C9.32229 7.31094 9.27804 7.34305 9.2449 7.31938L8.98882 7.13637L8.73275 7.31938C8.69961 7.34305 8.65536 7.31094 8.66764 7.27208L8.76256 6.97198L8.50934 6.785C8.47657 6.76081 8.49345 6.70878 8.53423 6.70845L8.84895 6.70602L8.94851 6.40742C8.96164 6.36875 9.01629 6.36875 9.02918 6.40742Z" fill="#F5F5F5"/>
<path d="M9.02918 8.94551L9.12875 9.2441L9.44346 9.24654C9.4842 9.24687 9.50112 9.29885 9.46831 9.32309L9.21509 9.51007L9.31001 9.81016C9.32229 9.84902 9.27804 9.88113 9.2449 9.85746L8.98882 9.67441L8.73275 9.85746C8.69961 9.88113 8.65536 9.84902 8.66764 9.81016L8.76256 9.51007L8.50934 9.32309C8.47657 9.2989 8.49345 9.24687 8.53423 9.24654L8.84895 9.2441L8.94851 8.94551C8.96164 8.90684 9.01629 8.90684 9.02918 8.94551Z" fill="#F5F5F5"/>
<path d="M9.02918 11.2551L9.12875 11.5537L9.44346 11.5561C9.4842 11.5564 9.50112 11.6084 9.46831 11.6327L9.21509 11.8196L9.31001 12.1197C9.32229 12.1586 9.27804 12.1907 9.2449 12.167L8.98882 11.984L8.73275 12.167C8.69961 12.1907 8.65536 12.1586 8.66764 12.1197L8.76256 11.8196L8.50934 11.6327C8.47657 11.6085 8.49345 11.5564 8.53423 11.5561L8.84895 11.5537L8.94851 11.2551C8.96164 11.2164 9.01629 11.2164 9.02918 11.2551Z" fill="#F5F5F5"/>
<path d="M10.242 2.33369L10.3416 2.63229L10.6563 2.63472C10.6971 2.63505 10.714 2.68704 10.6812 2.71122L10.428 2.89821L10.5229 3.1983C10.5352 3.23716 10.4909 3.26932 10.4578 3.2456L10.2017 3.06255L9.94561 3.2456C9.91247 3.26932 9.86822 3.23716 9.8805 3.1983L9.97542 2.89821L9.7222 2.71122C9.68944 2.68704 9.70631 2.635 9.74705 2.63472L10.0618 2.63229L10.1614 2.33369C10.1745 2.29502 10.2291 2.29502 10.242 2.33369Z" fill="#F5F5F5"/>
<path d="M10.242 5.0959L10.3416 5.39449L10.6563 5.39693C10.6971 5.39726 10.714 5.44924 10.6812 5.47348L10.428 5.66046L10.5229 5.96055C10.5352 5.99941 10.4909 6.03157 10.4578 6.00785L10.2017 5.8248L9.94561 6.00785C9.91247 6.03157 9.86822 5.99941 9.8805 5.96055L9.97542 5.66046L9.7222 5.47348C9.68944 5.44929 9.70631 5.39726 9.74705 5.39693L10.0618 5.39449L10.1614 5.0959C10.1745 5.05723 10.2291 5.05723 10.242 5.0959Z" fill="#F5F5F5"/>
<path d="M10.242 7.72038L10.3416 8.01897L10.6563 8.02141C10.6971 8.02173 10.714 8.07372 10.6812 8.09795L10.428 8.28494L10.5229 8.58503C10.5352 8.62389 10.4909 8.656 10.4578 8.63233L10.2017 8.44928L9.94561 8.63233C9.91247 8.65605 9.86822 8.62389 9.8805 8.58503L9.97542 8.28494L9.7222 8.09795C9.68944 8.07377 9.70631 8.02173 9.74705 8.02141L10.0618 8.01897L10.1614 7.72038C10.1745 7.68175 10.2291 7.68175 10.242 7.72038Z" fill="#F5F5F5"/>
<path d="M10.242 10.0773L10.3416 10.3759L10.6563 10.3784C10.6971 10.3787 10.714 10.4307 10.6812 10.4549L10.428 10.6419L10.5229 10.942C10.5352 10.9809 10.4909 11.013 10.4578 10.9893L10.2017 10.8063L9.94561 10.9893C9.91247 11.013 9.86822 10.9809 9.8805 10.942L9.97542 10.6419L9.7222 10.4549C9.68944 10.4307 9.70631 10.3787 9.74705 10.3784L10.0618 10.3759L10.1614 10.0773C10.1745 10.0387 10.2291 10.0387 10.242 10.0773Z" fill="#F5F5F5"/>
<path d="M11.4539 1.15397L11.5535 1.45256L11.8682 1.455C11.909 1.45533 11.9259 1.50731 11.8931 1.5315L11.6399 1.71848L11.7348 2.01858C11.7471 2.05744 11.7028 2.08955 11.6697 2.06587L11.4136 1.88283L11.1576 2.06587C11.1244 2.08959 11.0802 2.05744 11.0924 2.01858L11.1874 1.71848L10.9341 1.5315C10.9014 1.50731 10.9183 1.45528 10.959 1.455L11.2737 1.45256L11.3733 1.15397C11.3864 1.11534 11.4411 1.11534 11.4539 1.15397Z" fill="#F5F5F5"/>
<path d="M11.4539 3.64473L11.5535 3.94332L11.8682 3.94576C11.909 3.94609 11.9259 3.99807 11.8931 4.0223L11.6399 4.20929L11.7348 4.50938C11.7471 4.54824 11.7028 4.58035 11.6697 4.55668L11.4136 4.37363L11.1576 4.55668C11.1244 4.5804 11.0802 4.54824 11.0924 4.50938L11.1874 4.20929L10.9341 4.0223C10.9014 3.99812 10.9183 3.94609 10.959 3.94576L11.2737 3.94332L11.3733 3.64473C11.3864 3.60605 11.4411 3.60605 11.4539 3.64473Z" fill="#F5F5F5"/>
<path d="M11.4539 6.40742L11.5535 6.70602L11.8682 6.70845C11.909 6.70878 11.9259 6.76077 11.8931 6.785L11.6399 6.97198L11.7348 7.27208C11.7471 7.31094 11.7028 7.34305 11.6697 7.31938L11.4136 7.13637L11.1576 7.31938C11.1244 7.34305 11.0802 7.31094 11.0924 7.27208L11.1874 6.97198L10.9341 6.785C10.9014 6.76081 10.9183 6.70878 10.959 6.70845L11.2737 6.70602L11.3733 6.40742C11.3864 6.36875 11.4411 6.36875 11.4539 6.40742Z" fill="#F5F5F5"/>
<path d="M11.4539 8.94551L11.5535 9.2441L11.8682 9.24654C11.909 9.24687 11.9259 9.29885 11.8931 9.32309L11.6399 9.51007L11.7348 9.81016C11.7471 9.84902 11.7028 9.88113 11.6697 9.85746L11.4136 9.67441L11.1576 9.85746C11.1244 9.88113 11.0802 9.84902 11.0924 9.81016L11.1874 9.51007L10.9341 9.32309C10.9014 9.2989 10.9183 9.24687 10.959 9.24654L11.2737 9.2441L11.3733 8.94551C11.3864 8.90684 11.4411 8.90684 11.4539 8.94551Z" fill="#F5F5F5"/>
<path d="M11.4539 11.2551L11.5535 11.5537L11.8682 11.5561C11.909 11.5564 11.9259 11.6084 11.8931 11.6327L11.6399 11.8196L11.7348 12.1197C11.7471 12.1586 11.7028 12.1907 11.6697 12.167L11.4136 11.984L11.1576 12.167C11.1244 12.1907 11.0802 12.1586 11.0924 12.1197L11.1874 11.8196L10.9341 11.6327C10.9014 11.6085 10.9183 11.5564 10.959 11.5561L11.2737 11.5537L11.3733 11.2551C11.3864 11.2164 11.4411 11.2164 11.4539 11.2551Z" fill="#F5F5F5"/>
</g>
<defs>
<clipPath id="clip0_401_2197">
<rect width="24" height="24" rx="12" fill="white"/>
</clipPath>
</defs>
</svg>
