<svg width="20" height="20" viewBox="0 0 20 20" fill="none" xmlns="http://www.w3.org/2000/svg">
<path fill-rule="evenodd" clip-rule="evenodd" d="M3.0002 8.1895C3.70933 8.866 4.68162 9.28327 5.75429 9.28327C7.92475 9.28327 9.68425 7.57484 9.68425 5.46738C9.68425 5.13194 9.63967 4.80661 9.55596 4.49667C10.4497 3.35007 11.8933 2.60547 13.5221 2.60547C16.2352 2.60547 18.4346 4.67148 18.4346 7.22003C18.4346 7.67623 18.3641 8.11697 18.2328 8.53316C18.7776 8.82056 19.2193 9.23575 19.5249 9.74778C19.8309 10.2605 20.0004 10.8703 20.0004 11.5462C20.0004 12.222 19.8309 12.8319 19.5249 13.3446C19.2189 13.8573 18.7764 14.2729 18.2306 14.5604C17.6847 14.8478 17.0355 15.0071 16.3161 15.0071H4.03493C3.31545 15.0071 2.66626 14.8478 2.12043 14.5604C1.5746 14.2729 1.13214 13.8573 0.826137 13.3446C0.520133 12.8319 0.350586 12.222 0.350586 11.5462C0.350586 10.8703 0.520133 10.2605 0.826137 9.74778C1.13214 9.23505 1.5746 8.81942 2.12043 8.53197C2.29259 8.44131 2.47503 8.3634 2.66671 8.29922C2.66426 8.28337 2.80825 8.24793 3.0002 8.1895Z" fill="url(#paint0_linear_401_2270)"/>
<path fill-rule="evenodd" clip-rule="evenodd" d="M4.91347 16.7401C5.05062 16.5094 5.35053 16.4291 5.58462 16.5603C5.82045 16.6925 5.89988 16.9891 5.76171 17.2215L4.98894 18.5211C4.85178 18.7517 4.55187 18.8321 4.31779 18.7009C4.08196 18.5686 4.00252 18.2721 4.1407 18.0397L4.91347 16.7401Z" fill="#B6B3BB"/>
<path fill-rule="evenodd" clip-rule="evenodd" d="M9.82637 16.7401C9.96353 16.5094 10.2634 16.4291 10.4975 16.5603C10.7333 16.6925 10.8128 16.9891 10.6746 17.2215L9.90184 18.5211C9.76469 18.7517 9.46477 18.8321 9.23069 18.7009C8.99486 18.5686 8.91542 18.2721 9.0536 18.0397L9.82637 16.7401Z" fill="#B6B3BB"/>
<path fill-rule="evenodd" clip-rule="evenodd" d="M14.7384 16.7401C14.8755 16.5094 15.1755 16.4291 15.4095 16.5603C15.6454 16.6925 15.7248 16.9891 15.5866 17.2215L14.8139 18.5211C14.6767 18.7517 14.3768 18.8321 14.1427 18.7009C13.9069 18.5686 13.8274 18.2721 13.9656 18.0397L14.7384 16.7401Z" fill="#B6B3BB"/>
<ellipse cx="5.7539" cy="5.46738" rx="2.94747" ry="2.86192" fill="url(#paint1_linear_401_2270)"/>
<path fill-rule="evenodd" clip-rule="evenodd" d="M4.09567 0.124568C4.35773 0.0563871 4.6271 0.207393 4.69732 0.461848L4.9516 1.38331C5.02182 1.63777 4.8663 1.89932 4.60424 1.9675C4.34218 2.03568 4.07281 1.88468 4.00259 1.63022L3.7483 0.708754C3.67808 0.454299 3.8336 0.19275 4.09567 0.124568Z" fill="url(#paint2_linear_401_2270)"/>
<path fill-rule="evenodd" clip-rule="evenodd" d="M7.77829 0.437538C8.02418 0.548869 8.13056 0.832666 8.0159 1.07142L7.60069 1.93601C7.48603 2.17476 7.19375 2.27805 6.94786 2.16672C6.70197 2.05539 6.59559 1.77159 6.71025 1.53284L7.12547 0.668251C7.24013 0.4295 7.53241 0.326207 7.77829 0.437538Z" fill="url(#paint3_linear_401_2270)"/>
<path fill-rule="evenodd" clip-rule="evenodd" d="M0.111463 5.64988C0.0878172 5.38745 0.28775 5.1561 0.558025 5.13314L1.53678 5.04999C1.80705 5.02703 2.04532 5.22116 2.06897 5.48359C2.09261 5.74602 1.89268 5.97738 1.62241 6.00033L0.643654 6.08348C0.373379 6.10644 0.135109 5.91231 0.111463 5.64988Z" fill="url(#paint4_linear_401_2270)"/>
<path fill-rule="evenodd" clip-rule="evenodd" d="M1.06847 2.1833C1.22408 1.96751 1.5304 1.91507 1.75264 2.06617L2.55745 2.61334C2.77969 2.76444 2.8337 3.06186 2.67808 3.27765C2.52247 3.49345 2.21616 3.54589 1.99391 3.39479L1.1891 2.84762C0.966862 2.69652 0.91285 2.39909 1.06847 2.1833Z" fill="url(#paint5_linear_401_2270)"/>
<defs>
<linearGradient id="paint0_linear_401_2270" x1="0.509545" y1="2.60547" x2="0.509545" y2="14.8065" gradientUnits="userSpaceOnUse">
<stop stop-color="#689CFF"/>
<stop offset="1" stop-color="#37A7F4"/>
</linearGradient>
<linearGradient id="paint1_linear_401_2270" x1="2.80643" y1="2.60547" x2="2.80643" y2="8.3293" gradientUnits="userSpaceOnUse">
<stop stop-color="#FFC31F"/>
<stop offset="1" stop-color="#FFB500"/>
</linearGradient>
<linearGradient id="paint2_linear_401_2270" x1="3.62207" y1="0.248535" x2="4.10615" y2="2.09788" gradientUnits="userSpaceOnUse">
<stop stop-color="#FFC31F"/>
<stop offset="1" stop-color="#FFB500"/>
</linearGradient>
<linearGradient id="paint3_linear_401_2270" x1="6.36127" y1="0.692383" x2="6.78849" y2="2.32451" gradientUnits="userSpaceOnUse">
<stop stop-color="#FFC31F"/>
<stop offset="1" stop-color="#FFB500"/>
</linearGradient>
<linearGradient id="paint4_linear_401_2270" x1="0" y1="5.27148" x2="0.284474" y2="6.35827" gradientUnits="userSpaceOnUse">
<stop stop-color="#FFC31F"/>
<stop offset="1" stop-color="#FFB500"/>
</linearGradient>
<linearGradient id="paint5_linear_401_2270" x1="0.870117" y1="2.12012" x2="1.29781" y2="3.75406" gradientUnits="userSpaceOnUse">
<stop stop-color="#FFC31F"/>
<stop offset="1" stop-color="#FFB500"/>
</linearGradient>
</defs>
</svg>
