<svg width="32" height="24" viewBox="0 0 32 24" fill="none" xmlns="http://www.w3.org/2000/svg">
<path d="M31.3313 4.30465C30.9633 2.92506 29.879 1.83855 28.5022 1.46982C26.0067 0.799805 16 0.799805 16 0.799805C16 0.799805 5.99337 0.799805 3.49781 1.46982C2.12103 1.83861 1.0367 2.92506 0.668671 4.30465C0 6.80523 0 12.0224 0 12.0224C0 12.0224 0 17.2397 0.668671 19.7402C1.0367 21.1198 2.12103 22.1611 3.49781 22.5298C5.99337 23.1998 16 23.1998 16 23.1998C16 23.1998 26.0066 23.1998 28.5022 22.5298C29.879 22.1611 30.9633 21.1198 31.3313 19.7402C32 17.2397 32 12.0224 32 12.0224C32 12.0224 32 6.80523 31.3313 4.30465ZM12.7273 16.7593V7.2856L21.0909 12.0226L12.7273 16.7593Z" fill="white"/>
</svg>
